<svg xmlns="http://www.w3.org/2000/svg" version="1.1" xmlns:xlink="http://www.w3.org/1999/xlink" width="200" height="200"><svg xmlns="http://www.w3.org/2000/svg" version="1.1" xmlns:xlink="http://www.w3.org/1999/xlink" width="200" height="200"><svg xmlns="http://www.w3.org/2000/svg" version="1.1" xmlns:xlink="http://www.w3.org/1999/xlink" viewBox="0 0 200 200"><rect width="200" height="200" fill="url('#gradient')"></rect><defs><linearGradient id="gradient" gradientTransform="rotate(45 0.5 0.5)"><stop offset="0%" stop-color="#0a0e1a"></stop><stop offset="100%" stop-color="#25408f"></stop></linearGradient></defs><g><g fill="#ffffff" transform="matrix(4.0805844587115345,0,0,4.0805844587115345,7.248818784035066,130.19866756931566)" stroke="#0e5278" stroke-width="0.2"><path d="M13.12-7.47L13.12-6.82Q13.12-4.74 12.34-3.13Q11.57-1.53 10.15-0.67Q8.73 0.20 6.91 0.20Q5.10 0.20 3.69-0.64Q2.29-1.47 1.50-3.03Q0.71-4.58 0.67-6.59L0.67-6.59L0.67-7.39Q0.67-9.48 1.44-11.08Q2.21-12.68 3.64-13.54Q5.07-14.41 6.89-14.41L6.89-14.41Q8.70-14.41 10.12-13.55Q11.53-12.70 12.32-11.11Q13.11-9.52 13.12-7.47L13.12-7.47ZM9.63-6.76L9.63-7.41Q9.63-9.53 8.92-10.63Q8.21-11.73 6.89-11.73L6.89-11.73Q4.32-11.73 4.17-7.86L4.17-7.86L4.16-6.82Q4.16-4.73 4.85-3.60Q5.55-2.48 6.91-2.48L6.91-2.48Q8.21-2.48 8.92-3.58Q9.62-4.69 9.63-6.76L9.63-6.76ZM21.18-10.64L21.12-7.59L20.04-7.67Q18.49-7.67 18.05-6.69L18.05-6.69L18.05 0L14.76 0L14.76-10.57L17.84-10.57L17.95-9.21Q18.78-10.76 20.26-10.76L20.26-10.76Q20.79-10.76 21.18-10.64L21.18-10.64ZM32.12-5.36L32.12-5.20Q32.12-2.60 31.04-1.20Q29.97 0.20 28.02 0.20L28.02 0.20Q26.41 0.20 25.42-1.08L25.42-1.08L25.28 0L22.33 0L22.33-15L25.63-15L25.63-9.72Q26.54-10.76 28.00-10.76L28.00-10.76Q29.97-10.76 31.04-9.35Q32.12-7.93 32.12-5.36L32.12-5.36ZM28.82-5.40L28.82-5.40Q28.82-6.92 28.41-7.57Q28.01-8.22 27.17-8.22L27.17-8.22Q26.05-8.22 25.63-7.37L25.63-7.37L25.63-3.17Q26.04-2.33 27.19-2.33L27.19-2.33Q28.35-2.33 28.66-3.47L28.66-3.47Q28.82-4.02 28.82-5.40ZM37.04-10.57L37.04 0L33.74 0L33.74-10.57L37.04-10.57ZM33.54-13.29L33.54-13.29Q33.54-13.99 34.05-14.44Q34.56-14.89 35.37-14.89Q36.18-14.89 36.69-14.44Q37.20-13.99 37.20-13.29Q37.20-12.59 36.69-12.14Q36.18-11.69 35.37-11.69Q34.56-11.69 34.05-12.14Q33.54-12.59 33.54-13.29ZM39.61-13.19L42.90-13.19L42.90-10.57L44.64-10.57L44.64-8.28L42.90-8.28L42.90-3.45Q42.90-2.85 43.12-2.62Q43.33-2.38 43.96-2.38L43.96-2.38Q44.45-2.38 44.79-2.44L44.79-2.44L44.79-0.09Q43.90 0.20 42.93 0.20L42.93 0.20Q41.23 0.20 40.42-0.61Q39.61-1.41 39.61-3.04L39.61-3.04L39.61-8.28L38.26-8.28L38.26-10.57L39.61-10.57L39.61-13.19Z"></path></g></g></svg></svg><style>@media (prefers-color-scheme: light) { :root { filter: none; } }
@media (prefers-color-scheme: dark) { :root { filter: none; } }
</style></svg>